<svg xmlns="http://www.w3.org/2000/svg" width="1920" height="1080"><path d="M285,1301L147,1304L715,1344Z" fill="#727d8f" stroke="#727d8f" stroke-width="1.51"/><path d="M1001,-212L1199,-198L1388,-210Z" fill="#a3c9c7" stroke="#a3c9c7" stroke-width="1.51"/><path d="M736,-232L1001,-212L1388,-210Z" fill="#a8d4c8" stroke="#a8d4c8" stroke-width="1.51"/><path d="M1168,1257L1057,1266L1524,1317Z" fill="#235a97" stroke="#235a97" stroke-width="1.51"/><path d="M1057,1266L715,1344L1524,1317Z" fill="#2b6194" stroke="#2b6194" stroke-width="1.51"/><path d="M1524,1317L715,1344L1769,1321Z" fill="#1d518d" stroke="#1d518d" stroke-width="1.51"/><path d="M736,-232L1388,-210L1925,-251Z" fill="#a0bdc5" stroke="#a0bdc5" stroke-width="1.51"/><path d="M439,-254L736,-232L1925,-251Z" fill="#aad5cb" stroke="#aad5cb" stroke-width="1.51"/><path d="M124,-267L439,-254L1925,-251Z" fill="#b6dfca" stroke="#b6dfca" stroke-width="1.51"/><path d="M1652,-204L1814,-209L1925,-251Z" fill="#9c97b5" stroke="#9c97b5" stroke-width="1.51"/><path d="M1388,-210L1652,-204L1925,-251Z" fill="#9da2ba" stroke="#9da2ba" stroke-width="1.51"/><path d="M2032,138L1990,213L2037,296Z" fill="#6a7d96" stroke="#6a7d96" stroke-width="1.51"/><path d="M1882,521L1889,640L2116,662Z" fill="#3369a1" stroke="#3369a1" stroke-width="1.51"/><path d="M2082,829L2075,1003L2116,662Z" fill="#1e4e8d" stroke="#1e4e8d" stroke-width="1.51"/><path d="M1922,1255L1769,1321L2118,1266Z" fill="#192a7a" stroke="#192a7a" stroke-width="1.51"/><path d="M2081,1115L1982,1180L2118,1266Z" fill="#1a2a7b" stroke="#1a2a7b" stroke-width="1.51"/><path d="M2116,662L2075,1003L2118,1266Z" fill="#1a3c84" stroke="#1a3c84" stroke-width="1.51"/><path d="M2075,1003L2081,1115L2118,1266Z" fill="#1b2e7e" stroke="#1b2e7e" stroke-width="1.51"/><path d="M2053,-60L2032,138L2139,500Z" fill="#6b7b90" stroke="#6b7b90" stroke-width="1.51"/><path d="M2032,138L2037,296L2139,500Z" fill="#567592" stroke="#567592" stroke-width="1.51"/><path d="M1882,521L2116,662L2139,500Z" fill="#326999" stroke="#326999" stroke-width="1.51"/><path d="M2033,393L1882,521L2139,500Z" fill="#41709b" stroke="#41709b" stroke-width="1.51"/><path d="M2037,296L2033,393L2139,500Z" fill="#497193" stroke="#497193" stroke-width="1.51"/><path d="M2060,-178L2053,-60L2139,500Z" fill="#79808f" stroke="#79808f" stroke-width="1.51"/><path d="M2116,662L2118,1266L2139,500Z" fill="#1c4f8b" stroke="#1c4f8b" stroke-width="1.51"/><path d="M1939,95L2032,138L2053,-60Z" fill="#818497" stroke="#818497" stroke-width="1.51"/><path d="M1888,806L2082,829L2116,662Z" fill="#225897" stroke="#225897" stroke-width="1.51"/><path d="M1889,640L1888,806L2116,662Z" fill="#2b61a0" stroke="#2b61a0" stroke-width="1.51"/><path d="M1982,1180L1922,1255L2118,1266Z" fill="#19297a" stroke="#19297a" stroke-width="1.51"/><path d="M1961,-79L1939,95L2053,-60Z" fill="#888899" stroke="#888899" stroke-width="1.51"/><path d="M1961,-79L2053,-60L2060,-178Z" fill="#8c8896" stroke="#8c8896" stroke-width="1.51"/><path d="M1884,956L1982,1180L2075,1003Z" fill="#203b8d" stroke="#203b8d" stroke-width="1.51"/><path d="M2075,1003L1982,1180L2081,1115Z" fill="#1d3384" stroke="#1d3384" stroke-width="1.51"/><path d="M1884,956L2075,1003L2082,829Z" fill="#1f4690" stroke="#1f4690" stroke-width="1.51"/><path d="M1888,806L1884,956L2082,829Z" fill="#245099" stroke="#245099" stroke-width="1.51"/><path d="M1925,-251L1961,-79L2060,-178Z" fill="#918ba1" stroke="#918ba1" stroke-width="1.51"/><path d="M1916,359L2033,393L2037,296Z" fill="#53769b" stroke="#53769b" stroke-width="1.51"/><path d="M1916,359L1882,521L2033,393Z" fill="#4d75a2" stroke="#4d75a2" stroke-width="1.51"/><path d="M1990,213L1916,359L2037,296Z" fill="#5f7b9c" stroke="#5f7b9c" stroke-width="1.51"/><path d="M1939,95L1990,213L2032,138Z" fill="#788299" stroke="#788299" stroke-width="1.51"/><path d="M1768,1032L1792,1175L1884,956Z" fill="#26429b" stroke="#26429b" stroke-width="1.51"/><path d="M1925,-251L1814,-209L1961,-79Z" fill="#978fab" stroke="#978fab" stroke-width="1.51"/><path d="M1884,956L1792,1175L1982,1180Z" fill="#253994" stroke="#253994" stroke-width="1.51"/><path d="M1939,95L1779,261L1990,213Z" fill="#7684a3" stroke="#7684a3" stroke-width="1.51"/><path d="M1779,261L1916,359L1990,213Z" fill="#677fa5" stroke="#677fa5" stroke-width="1.51"/><path d="M1814,-209L1796,-112L1961,-79Z" fill="#9991ab" stroke="#9991ab" stroke-width="1.51"/><path d="M1759,35L1939,95L1961,-79Z" fill="#8c8ca4" stroke="#8c8ca4" stroke-width="1.51"/><path d="M1792,1175L1922,1255L1982,1180Z" fill="#203089" stroke="#203089" stroke-width="1.51"/><path d="M1797,741L1888,806L1889,640Z" fill="#2e64aa" stroke="#2e64aa" stroke-width="1.51"/><path d="M1796,-112L1759,35L1961,-79Z" fill="#9491a6" stroke="#9491a6" stroke-width="1.51"/><path d="M1788,865L1884,956L1888,806Z" fill="#2853a3" stroke="#2853a3" stroke-width="1.51"/><path d="M1781,441L1882,521L1916,359Z" fill="#4f78ab" stroke="#4f78ab" stroke-width="1.51"/><path d="M1759,35L1779,261L1939,95Z" fill="#838ca8" stroke="#838ca8" stroke-width="1.51"/><path d="M1792,1175L1769,1321L1922,1255Z" fill="#1f3187" stroke="#1f3187" stroke-width="1.51"/><path d="M1882,521L1780,552L1889,640Z" fill="#3c71ac" stroke="#3c71ac" stroke-width="1.51"/><path d="M1779,261L1781,441L1916,359Z" fill="#5b7faa" stroke="#5b7faa" stroke-width="1.51"/><path d="M1388,-210L1510,-183L1652,-204Z" fill="#9dadbb" stroke="#9dadbb" stroke-width="1.51"/><path d="M1780,552L1797,741L1889,640Z" fill="#356dad" stroke="#356dad" stroke-width="1.51"/><path d="M1797,741L1788,865L1888,806Z" fill="#2a5da8" stroke="#2a5da8" stroke-width="1.51"/><path d="M1781,441L1780,552L1882,521Z" fill="#4479ae" stroke="#4479ae" stroke-width="1.51"/><path d="M1788,865L1768,1032L1884,956Z" fill="#264da0" stroke="#264da0" stroke-width="1.51"/><path d="M1759,35L1652,82L1779,261Z" fill="#8493ab" stroke="#8493ab" stroke-width="1.51"/><path d="M1664,558L1633,670L1780,552Z" fill="#377bb1" stroke="#377bb1" stroke-width="1.51"/><path d="M1779,261L1597,386L1781,441Z" fill="#5987ae" stroke="#5987ae" stroke-width="1.51"/><path d="M1632,887L1768,1032L1788,865Z" fill="#2656a4" stroke="#2656a4" stroke-width="1.51"/><path d="M1657,-52L1759,35L1796,-112Z" fill="#9498aa" stroke="#9498aa" stroke-width="1.51"/><path d="M1780,552L1633,670L1797,741Z" fill="#3372af" stroke="#3372af" stroke-width="1.51"/><path d="M1652,-204L1796,-112L1814,-209Z" fill="#9b99b2" stroke="#9b99b2" stroke-width="1.51"/><path d="M1632,887L1610,978L1768,1032Z" fill="#2455a4" stroke="#2455a4" stroke-width="1.51"/><path d="M1587,287L1597,386L1779,261Z" fill="#618eaf" stroke="#618eaf" stroke-width="1.51"/><path d="M1664,558L1780,552L1781,441Z" fill="#417eb0" stroke="#417eb0" stroke-width="1.51"/><path d="M1768,1032L1580,1193L1792,1175Z" fill="#26419a" stroke="#26419a" stroke-width="1.51"/><path d="M1583,1235L1769,1321L1792,1175Z" fill="#20398c" stroke="#20398c" stroke-width="1.51"/><path d="M1652,-204L1657,-52L1796,-112Z" fill="#999caf" stroke="#999caf" stroke-width="1.51"/><path d="M1632,887L1788,865L1797,741Z" fill="#2860a9" stroke="#2860a9" stroke-width="1.51"/><path d="M1633,670L1632,887L1797,741Z" fill="#286caf" stroke="#286caf" stroke-width="1.51"/><path d="M1580,1193L1583,1235L1792,1175Z" fill="#234094" stroke="#234094" stroke-width="1.51"/><path d="M1652,82L1587,287L1779,261Z" fill="#7593ad" stroke="#7593ad" stroke-width="1.51"/><path d="M1610,978L1580,1193L1768,1032Z" fill="#264ca0" stroke="#264ca0" stroke-width="1.51"/><path d="M1597,386L1664,558L1781,441Z" fill="#4984b1" stroke="#4984b1" stroke-width="1.51"/><path d="M1583,1235L1524,1317L1769,1321Z" fill="#1c3d88" stroke="#1c3d88" stroke-width="1.51"/><path d="M736,-232L928,-209L1001,-212Z" fill="#b0dcc7" stroke="#b0dcc7" stroke-width="1.51"/><path d="M1657,-52L1652,82L1759,35Z" fill="#8e9aac" stroke="#8e9aac" stroke-width="1.51"/><path d="M1298,1241L1168,1257L1524,1317Z" fill="#225595" stroke="#225595" stroke-width="1.51"/><path d="M1466,1159L1580,1193L1610,978Z" fill="#264fa1" stroke="#264fa1" stroke-width="1.51"/><path d="M1445,791L1632,887L1633,670Z" fill="#2372b2" stroke="#2372b2" stroke-width="1.51"/><path d="M1540,649L1445,791L1633,670Z" fill="#287db6" stroke="#287db6" stroke-width="1.51"/><path d="M1527,254L1587,287L1652,82Z" fill="#7599b0" stroke="#7599b0" stroke-width="1.51"/><path d="M1465,104L1527,254L1652,82Z" fill="#80a0b1" stroke="#80a0b1" stroke-width="1.51"/><path d="M1652,-204L1510,-183L1657,-52Z" fill="#9aa4b4" stroke="#9aa4b4" stroke-width="1.51"/><path d="M1510,-183L1515,-17L1657,-52Z" fill="#98a7b0" stroke="#98a7b0" stroke-width="1.51"/><path d="M1515,-17L1652,82L1657,-52Z" fill="#90a0ae" stroke="#90a0ae" stroke-width="1.51"/><path d="M1597,386L1476,537L1664,558Z" fill="#428ab5" stroke="#428ab5" stroke-width="1.51"/><path d="M1540,649L1633,670L1664,558Z" fill="#327eb4" stroke="#327eb4" stroke-width="1.51"/><path d="M1476,537L1540,649L1664,558Z" fill="#3485b6" stroke="#3485b6" stroke-width="1.51"/><path d="M1515,-17L1465,104L1652,82Z" fill="#8ba4b0" stroke="#8ba4b0" stroke-width="1.51"/><path d="M1475,938L1466,1159L1610,978Z" fill="#255aa6" stroke="#255aa6" stroke-width="1.51"/><path d="M1475,938L1610,978L1632,887Z" fill="#235fa9" stroke="#235fa9" stroke-width="1.51"/><path d="M1445,791L1475,938L1632,887Z" fill="#236bae" stroke="#236bae" stroke-width="1.51"/><path d="M1587,287L1457,369L1597,386Z" fill="#5994b3" stroke="#5994b3" stroke-width="1.51"/><path d="M1457,369L1476,537L1597,386Z" fill="#4c93b6" stroke="#4c93b6" stroke-width="1.51"/><path d="M1527,254L1457,369L1587,287Z" fill="#6299b4" stroke="#6299b4" stroke-width="1.51"/><path d="M1580,1193L1466,1159L1583,1235Z" fill="#234899" stroke="#234899" stroke-width="1.51"/><path d="M1466,1159L1524,1317L1583,1235Z" fill="#214794" stroke="#214794" stroke-width="1.51"/><path d="M1316,1026L1466,1159L1475,938Z" fill="#2761a9" stroke="#2761a9" stroke-width="1.51"/><path d="M1510,-183L1388,-210L1515,-17Z" fill="#9bb0b8" stroke="#9bb0b8" stroke-width="1.51"/><path d="M1465,104L1345,205L1527,254Z" fill="#7aa7b5" stroke="#7aa7b5" stroke-width="1.51"/><path d="M1476,537L1320,715L1540,649Z" fill="#2e8bba" stroke="#2e8bba" stroke-width="1.51"/><path d="M1320,715L1445,791L1540,649Z" fill="#2584ba" stroke="#2584ba" stroke-width="1.51"/><path d="M1457,369L1376,496L1476,537Z" fill="#4598ba" stroke="#4598ba" stroke-width="1.51"/><path d="M1388,-210L1317,-16L1515,-17Z" fill="#9bb5b5" stroke="#9bb5b5" stroke-width="1.51"/><path d="M1466,1159L1298,1241L1524,1317Z" fill="#234f97" stroke="#234f97" stroke-width="1.51"/><path d="M1362,351L1457,369L1527,254Z" fill="#5d9eb7" stroke="#5d9eb7" stroke-width="1.51"/><path d="M1345,205L1362,351L1527,254Z" fill="#69a5b7" stroke="#69a5b7" stroke-width="1.51"/><path d="M1317,-16L1465,104L1515,-17Z" fill="#90afb5" stroke="#90afb5" stroke-width="1.51"/><path d="M124,-267L245,-252L439,-254Z" fill="#e8f6c3" stroke="#e8f6c3" stroke-width="1.51"/><path d="M1362,351L1376,496L1457,369Z" fill="#509eba" stroke="#509eba" stroke-width="1.51"/><path d="M1317,-16L1355,120L1465,104Z" fill="#8cb3b7" stroke="#8cb3b7" stroke-width="1.51"/><path d="M1355,120L1345,205L1465,104Z" fill="#83afb7" stroke="#83afb7" stroke-width="1.51"/><path d="M1307,1150L1298,1241L1466,1159Z" fill="#2958a2" stroke="#2958a2" stroke-width="1.51"/><path d="M1316,1026L1307,1150L1466,1159Z" fill="#295ea9" stroke="#295ea9" stroke-width="1.51"/><path d="M1445,791L1346,839L1475,938Z" fill="#2375b3" stroke="#2375b3" stroke-width="1.51"/><path d="M1376,496L1320,715L1476,537Z" fill="#3294bd" stroke="#3294bd" stroke-width="1.51"/><path d="M1346,839L1316,1026L1475,938Z" fill="#246fb1" stroke="#246fb1" stroke-width="1.51"/><path d="M1320,715L1346,839L1445,791Z" fill="#2183ba" stroke="#2183ba" stroke-width="1.51"/><path d="M831,1281L715,1344L1057,1266Z" fill="#3e6d96" stroke="#3e6d96" stroke-width="1.51"/><path d="M1205,989L1316,1026L1346,839Z" fill="#2375b3" stroke="#2375b3" stroke-width="1.51"/><path d="M1183,587L1320,715L1376,496Z" fill="#2e9bc0" stroke="#2e9bc0" stroke-width="1.51"/><path d="M1362,351L1235,385L1376,496Z" fill="#4fa4bd" stroke="#4fa4bd" stroke-width="1.51"/><path d="M1199,-198L1317,-16L1388,-210Z" fill="#9fc0bf" stroke="#9fc0bf" stroke-width="1.51"/><path d="M1345,205L1194,234L1362,351Z" fill="#6bafbc" stroke="#6bafbc" stroke-width="1.51"/><path d="M1194,234L1235,385L1362,351Z" fill="#5daebe" stroke="#5daebe" stroke-width="1.51"/><path d="M1235,385L1183,587L1376,496Z" fill="#3fa6c1" stroke="#3fa6c1" stroke-width="1.51"/><path d="M1317,-16L1181,110L1355,120Z" fill="#8dbbba" stroke="#8dbbba" stroke-width="1.51"/><path d="M1320,715L1141,793L1346,839Z" fill="#1f8bbe" stroke="#1f8bbe" stroke-width="1.51"/><path d="M1181,110L1345,205L1355,120Z" fill="#83b8ba" stroke="#83b8ba" stroke-width="1.51"/><path d="M1199,-198L1175,-13L1317,-16Z" fill="#9dc5ba" stroke="#9dc5ba" stroke-width="1.51"/><path d="M1181,110L1194,234L1345,205Z" fill="#7db9bc" stroke="#7db9bc" stroke-width="1.51"/><path d="M1141,793L1205,989L1346,839Z" fill="#2483b9" stroke="#2483b9" stroke-width="1.51"/><path d="M1183,587L1158,647L1320,715Z" fill="#2c9cc2" stroke="#2c9cc2" stroke-width="1.51"/><path d="M1189,1165L1298,1241L1307,1150Z" fill="#2960a6" stroke="#2960a6" stroke-width="1.51"/><path d="M1189,1165L1307,1150L1316,1026Z" fill="#2b66ac" stroke="#2b66ac" stroke-width="1.51"/><path d="M1205,989L1189,1165L1316,1026Z" fill="#2b6eaf" stroke="#2b6eaf" stroke-width="1.51"/><path d="M1175,-13L1181,110L1317,-16Z" fill="#93c1bc" stroke="#93c1bc" stroke-width="1.51"/><path d="M1158,647L1141,793L1320,715Z" fill="#2597c1" stroke="#2597c1" stroke-width="1.51"/><path d="M1189,1165L1168,1257L1298,1241Z" fill="#2960a1" stroke="#2960a1" stroke-width="1.51"/><path d="M1061,-55L1175,-13L1199,-198Z" fill="#a1cabc" stroke="#a1cabc" stroke-width="1.51"/><path d="M1141,793L1089,954L1205,989Z" fill="#2c83b8" stroke="#2c83b8" stroke-width="1.51"/><path d="M1060,1145L1189,1165L1205,989Z" fill="#326eae" stroke="#326eae" stroke-width="1.51"/><path d="M1073,503L1183,587L1235,385Z" fill="#42acc2" stroke="#42acc2" stroke-width="1.51"/><path d="M1194,234L1043,405L1235,385Z" fill="#5db4be" stroke="#5db4be" stroke-width="1.51"/><path d="M1043,405L1073,503L1235,385Z" fill="#50b2c1" stroke="#50b2c1" stroke-width="1.51"/><path d="M1181,110L1011,259L1194,234Z" fill="#7cbfbd" stroke="#7cbfbd" stroke-width="1.51"/><path d="M1011,259L1043,405L1194,234Z" fill="#69bcbe" stroke="#69bcbe" stroke-width="1.51"/><path d="M1001,-212L1061,-55L1199,-198Z" fill="#a5d0c2" stroke="#a5d0c2" stroke-width="1.51"/><path d="M1089,954L1060,1145L1205,989Z" fill="#3178b2" stroke="#3178b2" stroke-width="1.51"/><path d="M1175,-13L1003,60L1181,110Z" fill="#93c7bc" stroke="#93c7bc" stroke-width="1.51"/><path d="M1060,1145L1168,1257L1189,1165Z" fill="#3267a7" stroke="#3267a7" stroke-width="1.51"/><path d="M1003,60L1011,259L1181,110Z" fill="#89c7bd" stroke="#89c7bd" stroke-width="1.51"/><path d="M1025,822L1089,954L1141,793Z" fill="#2e8ebb" stroke="#2e8ebb" stroke-width="1.51"/><path d="M996,731L1141,793L1158,647Z" fill="#2c9dc1" stroke="#2c9dc1" stroke-width="1.51"/><path d="M1060,1145L1057,1266L1168,1257Z" fill="#3267a1" stroke="#3267a1" stroke-width="1.51"/><path d="M1061,-55L1003,60L1175,-13Z" fill="#9accbc" stroke="#9accbc" stroke-width="1.51"/><path d="M1073,503L1158,647L1183,587Z" fill="#36a7c3" stroke="#36a7c3" stroke-width="1.51"/><path d="M1073,503L996,731L1158,647Z" fill="#36a7c3" stroke="#36a7c3" stroke-width="1.51"/><path d="M922,556L996,731L1073,503Z" fill="#3caec4" stroke="#3caec4" stroke-width="1.51"/><path d="M996,731L1025,822L1141,793Z" fill="#2f99c0" stroke="#2f99c0" stroke-width="1.51"/><path d="M1001,-212L928,-117L1061,-55Z" fill="#a6d5c0" stroke="#a6d5c0" stroke-width="1.51"/><path d="M1025,822L893,857L1089,954Z" fill="#3490ba" stroke="#3490ba" stroke-width="1.51"/><path d="M893,857L916,1039L1089,954Z" fill="#3789b6" stroke="#3789b6" stroke-width="1.51"/><path d="M916,1039L1060,1145L1089,954Z" fill="#387bb1" stroke="#387bb1" stroke-width="1.51"/><path d="M1003,60L879,124L1011,259Z" fill="#8ccdbd" stroke="#8ccdbd" stroke-width="1.51"/><path d="M1011,259L905,344L1043,405Z" fill="#63c0c0" stroke="#63c0c0" stroke-width="1.51"/><path d="M867,1148L1057,1266L1060,1145Z" fill="#3a70a8" stroke="#3a70a8" stroke-width="1.51"/><path d="M1043,405L922,556L1073,503Z" fill="#49b5c3" stroke="#49b5c3" stroke-width="1.51"/><path d="M916,1039L867,1148L1060,1145Z" fill="#3f79af" stroke="#3f79af" stroke-width="1.51"/><path d="M928,-117L1003,60L1061,-55Z" fill="#a1d2bc" stroke="#a1d2bc" stroke-width="1.51"/><path d="M867,1148L831,1281L1057,1266Z" fill="#3d70a1" stroke="#3d70a1" stroke-width="1.51"/><path d="M922,556L874,693L996,731Z" fill="#3eacc3" stroke="#3eacc3" stroke-width="1.51"/><path d="M905,344L922,556L1043,405Z" fill="#55bcc2" stroke="#55bcc2" stroke-width="1.51"/><path d="M928,-209L928,-117L1001,-212Z" fill="#aad9c5" stroke="#aad9c5" stroke-width="1.51"/><path d="M909,279L905,344L1011,259Z" fill="#6fc4bf" stroke="#6fc4bf" stroke-width="1.51"/><path d="M879,124L909,279L1011,259Z" fill="#80cabd" stroke="#80cabd" stroke-width="1.51"/><path d="M996,731L893,857L1025,822Z" fill="#349cbf" stroke="#349cbf" stroke-width="1.51"/><path d="M928,-117L879,124L1003,60Z" fill="#9dd4bc" stroke="#9dd4bc" stroke-width="1.51"/><path d="M874,693L893,857L996,731Z" fill="#3aa3c1" stroke="#3aa3c1" stroke-width="1.51"/><path d="M452,1268L285,1301L715,1344Z" fill="#677a91" stroke="#677a91" stroke-width="1.51"/><path d="M787,721L785,828L874,693Z" fill="#48a9c0" stroke="#48a9c0" stroke-width="1.51"/><path d="M874,693L785,828L893,857Z" fill="#45a1be" stroke="#45a1be" stroke-width="1.51"/><path d="M879,124L718,254L909,279Z" fill="#88cebc" stroke="#88cebc" stroke-width="1.51"/><path d="M893,857L774,956L916,1039Z" fill="#458db5" stroke="#458db5" stroke-width="1.51"/><path d="M730,517L874,693L922,556Z" fill="#4eb6c2" stroke="#4eb6c2" stroke-width="1.51"/><path d="M905,344L777,384L922,556Z" fill="#60bfc0" stroke="#60bfc0" stroke-width="1.51"/><path d="M777,384L730,517L922,556Z" fill="#5dbec1" stroke="#5dbec1" stroke-width="1.51"/><path d="M787,97L879,124L928,-117Z" fill="#a0d6bb" stroke="#a0d6bb" stroke-width="1.51"/><path d="M737,-6L787,97L928,-117Z" fill="#a8daba" stroke="#a8daba" stroke-width="1.51"/><path d="M928,-209L736,-232L928,-117Z" fill="#b0dcc4" stroke="#b0dcc4" stroke-width="1.51"/><path d="M736,-232L737,-6L928,-117Z" fill="#b2ddbd" stroke="#b2ddbd" stroke-width="1.51"/><path d="M774,956L867,1148L916,1039Z" fill="#4983b1" stroke="#4983b1" stroke-width="1.51"/><path d="M785,1169L831,1281L867,1148Z" fill="#4a75a5" stroke="#4a75a5" stroke-width="1.51"/><path d="M774,956L785,1169L867,1148Z" fill="#4f80ae" stroke="#4f80ae" stroke-width="1.51"/><path d="M730,517L787,721L874,693Z" fill="#51b2c1" stroke="#51b2c1" stroke-width="1.51"/><path d="M787,97L718,254L879,124Z" fill="#96d4ba" stroke="#96d4ba" stroke-width="1.51"/><path d="M777,384L905,344L909,279Z" fill="#6dc5be" stroke="#6dc5be" stroke-width="1.51"/><path d="M718,254L777,384L909,279Z" fill="#79c9bd" stroke="#79c9bd" stroke-width="1.51"/><path d="M785,828L774,956L893,857Z" fill="#4a98b8" stroke="#4a98b8" stroke-width="1.51"/><path d="M-26,1254L-194,1234L147,1304Z" fill="#8e899b" stroke="#8e899b" stroke-width="1.51"/><path d="M736,-232L638,-179L737,-6Z" fill="#b9e2bd" stroke="#b9e2bd" stroke-width="1.51"/><path d="M774,956L623,1037L785,1169Z" fill="#5687ae" stroke="#5687ae" stroke-width="1.51"/><path d="M730,517L634,552L787,721Z" fill="#5cbac0" stroke="#5cbac0" stroke-width="1.51"/><path d="M785,1169L715,1344L831,1281Z" fill="#4a729a" stroke="#4a729a" stroke-width="1.51"/><path d="M585,1273L452,1268L715,1344Z" fill="#5c7793" stroke="#5c7793" stroke-width="1.51"/><path d="M439,-254L638,-179L736,-232Z" fill="#c6e8c4" stroke="#c6e8c4" stroke-width="1.51"/><path d="M540,823L774,956L785,828Z" fill="#579db8" stroke="#579db8" stroke-width="1.51"/><path d="M630,737L540,823L785,828Z" fill="#5ca8bb" stroke="#5ca8bb" stroke-width="1.51"/><path d="M623,1037L558,1168L785,1169Z" fill="#5e81aa" stroke="#5e81aa" stroke-width="1.51"/><path d="M585,1273L715,1344L785,1169Z" fill="#527599" stroke="#527599" stroke-width="1.51"/><path d="M558,1168L585,1273L785,1169Z" fill="#5c7ca2" stroke="#5c7ca2" stroke-width="1.51"/><path d="M737,-6L579,74L787,97Z" fill="#aadcb8" stroke="#aadcb8" stroke-width="1.51"/><path d="M579,74L718,254L787,97Z" fill="#a0d8b9" stroke="#a0d8b9" stroke-width="1.51"/><path d="M634,552L630,737L787,721Z" fill="#5cb4bf" stroke="#5cb4bf" stroke-width="1.51"/><path d="M630,737L785,828L787,721Z" fill="#53a9be" stroke="#53a9be" stroke-width="1.51"/><path d="M596,382L730,517L777,384Z" fill="#70c6be" stroke="#70c6be" stroke-width="1.51"/><path d="M579,74L560,194L718,254Z" fill="#a2dab8" stroke="#a2dab8" stroke-width="1.51"/><path d="M540,823L623,1037L774,956Z" fill="#5d96b3" stroke="#5d96b3" stroke-width="1.51"/><path d="M718,254L596,382L777,384Z" fill="#7ccbbc" stroke="#7ccbbc" stroke-width="1.51"/><path d="M596,382L634,552L730,517Z" fill="#6dc5bf" stroke="#6dc5bf" stroke-width="1.51"/><path d="M638,-179L539,-111L737,-6Z" fill="#bde4b8" stroke="#bde4b8" stroke-width="1.51"/><path d="M539,-111L579,74L737,-6Z" fill="#b8e2b6" stroke="#b8e2b6" stroke-width="1.51"/><path d="M560,194L596,382L718,254Z" fill="#8fd2ba" stroke="#8fd2ba" stroke-width="1.51"/><path d="M540,823L480,1005L623,1037Z" fill="#6b98b2" stroke="#6b98b2" stroke-width="1.51"/><path d="M435,688L489,786L630,737Z" fill="#71b6bd" stroke="#71b6bd" stroke-width="1.51"/><path d="M596,382L439,434L634,552Z" fill="#7fcbbd" stroke="#7fcbbd" stroke-width="1.51"/><path d="M439,434L404,545L634,552Z" fill="#81cbbd" stroke="#81cbbd" stroke-width="1.51"/><path d="M435,688L630,737L634,552Z" fill="#6ebabe" stroke="#6ebabe" stroke-width="1.51"/><path d="M404,545L435,688L634,552Z" fill="#7cc4bd" stroke="#7cc4bd" stroke-width="1.51"/><path d="M439,-254L539,-111L638,-179Z" fill="#cbeabf" stroke="#cbeabf" stroke-width="1.51"/><path d="M560,194L417,266L596,382Z" fill="#9bd7b9" stroke="#9bd7b9" stroke-width="1.51"/><path d="M480,1005L558,1168L623,1037Z" fill="#6c8bad" stroke="#6c8bad" stroke-width="1.51"/><path d="M489,786L540,823L630,737Z" fill="#6caebb" stroke="#6caebb" stroke-width="1.51"/><path d="M480,1005L489,1159L558,1168Z" fill="#7189aa" stroke="#7189aa" stroke-width="1.51"/><path d="M539,-111L406,-72L579,74Z" fill="#c6e8b5" stroke="#c6e8b5" stroke-width="1.51"/><path d="M486,144L560,194L579,74Z" fill="#b1e0b6" stroke="#b1e0b6" stroke-width="1.51"/><path d="M417,266L439,434L596,382Z" fill="#93d3ba" stroke="#93d3ba" stroke-width="1.51"/><path d="M489,1159L452,1268L558,1168Z" fill="#7081a1" stroke="#7081a1" stroke-width="1.51"/><path d="M406,-72L486,144L579,74Z" fill="#c0e6b5" stroke="#c0e6b5" stroke-width="1.51"/><path d="M558,1168L452,1268L585,1273Z" fill="#687d9c" stroke="#687d9c" stroke-width="1.51"/><path d="M489,786L480,1005L540,823Z" fill="#72a5b6" stroke="#72a5b6" stroke-width="1.51"/><path d="M486,144L417,266L560,194Z" fill="#addeb7" stroke="#addeb7" stroke-width="1.51"/><path d="M323,995L480,1005L489,786Z" fill="#7ba0b2" stroke="#7ba0b2" stroke-width="1.51"/><path d="M439,-254L406,-72L539,-111Z" fill="#d2edbb" stroke="#d2edbb" stroke-width="1.51"/><path d="M288,-57L230,45L406,-72Z" fill="#d9f0b3" stroke="#d9f0b3" stroke-width="1.51"/><path d="M323,995L317,1100L480,1005Z" fill="#8297ac" stroke="#8297ac" stroke-width="1.51"/><path d="M406,-72L230,45L486,144Z" fill="#ceecb4" stroke="#ceecb4" stroke-width="1.51"/><path d="M480,1005L317,1100L489,1159Z" fill="#7c8fab" stroke="#7c8fab" stroke-width="1.51"/><path d="M317,1100L452,1268L489,1159Z" fill="#7b86a5" stroke="#7b86a5" stroke-width="1.51"/><path d="M435,688L334,722L489,786Z" fill="#80babc" stroke="#80babc" stroke-width="1.51"/><path d="M334,722L269,850L489,786Z" fill="#86b6b9" stroke="#86b6b9" stroke-width="1.51"/><path d="M269,850L323,995L489,786Z" fill="#85aab4" stroke="#85aab4" stroke-width="1.51"/><path d="M230,45L417,266L486,144Z" fill="#c1e7b5" stroke="#c1e7b5" stroke-width="1.51"/><path d="M245,-252L288,-57L406,-72Z" fill="#dff3b7" stroke="#dff3b7" stroke-width="1.51"/><path d="M230,45L264,275L417,266Z" fill="#c0e6b5" stroke="#c0e6b5" stroke-width="1.51"/><path d="M404,545L334,722L435,688Z" fill="#87c3bc" stroke="#87c3bc" stroke-width="1.51"/><path d="M417,266L243,336L439,434Z" fill="#a3dab8" stroke="#a3dab8" stroke-width="1.51"/><path d="M340,514L404,545L439,434Z" fill="#8fd0bc" stroke="#8fd0bc" stroke-width="1.51"/><path d="M245,-252L406,-72L439,-254Z" fill="#dff3bd" stroke="#dff3bd" stroke-width="1.51"/><path d="M317,1100L285,1301L452,1268Z" fill="#7e859d" stroke="#7e859d" stroke-width="1.51"/><path d="M264,275L243,336L417,266Z" fill="#b0dfb7" stroke="#b0dfb7" stroke-width="1.51"/><path d="M243,336L340,514L439,434Z" fill="#9dd6ba" stroke="#9dd6ba" stroke-width="1.51"/><path d="M340,514L334,722L404,545Z" fill="#8dcabc" stroke="#8dcabc" stroke-width="1.51"/><path d="M102,1154L285,1301L317,1100Z" fill="#898aa2" stroke="#898aa2" stroke-width="1.51"/><path d="M269,850L178,982L323,995Z" fill="#8ba3b0" stroke="#8ba3b0" stroke-width="1.51"/><path d="M155,715L269,850L334,722Z" fill="#8fbcba" stroke="#8fbcba" stroke-width="1.51"/><path d="M177,509L155,715L334,722Z" fill="#96c8bc" stroke="#96c8bc" stroke-width="1.51"/><path d="M177,509L334,722L340,514Z" fill="#94cdbc" stroke="#94cdbc" stroke-width="1.51"/><path d="M243,336L177,509L340,514Z" fill="#a1d7ba" stroke="#a1d7ba" stroke-width="1.51"/><path d="M102,1154L147,1304L285,1301Z" fill="#868798" stroke="#868798" stroke-width="1.51"/><path d="M178,982L317,1100L323,995Z" fill="#8a9aad" stroke="#8a9aad" stroke-width="1.51"/><path d="M230,45L118,89L264,275Z" fill="#d0ecb3" stroke="#d0ecb3" stroke-width="1.51"/><path d="M118,89L95,213L264,275Z" fill="#cae9b4" stroke="#cae9b4" stroke-width="1.51"/><path d="M178,982L102,1154L317,1100Z" fill="#8f96aa" stroke="#8f96aa" stroke-width="1.51"/><path d="M124,-267L157,-8L245,-252Z" fill="#ebf7bb" stroke="#ebf7bb" stroke-width="1.51"/><path d="M155,715L115,802L269,850Z" fill="#94bab8" stroke="#94bab8" stroke-width="1.51"/><path d="M245,-252L157,-8L288,-57Z" fill="#e4f4b5" stroke="#e4f4b5" stroke-width="1.51"/><path d="M157,-8L230,45L288,-57Z" fill="#dcf2b3" stroke="#dcf2b3" stroke-width="1.51"/><path d="M124,-267L28,-172L157,-8Z" fill="#eef8b8" stroke="#eef8b8" stroke-width="1.51"/><path d="M83,398L177,509L243,336Z" fill="#abdbb9" stroke="#abdbb9" stroke-width="1.51"/><path d="M115,802L178,982L269,850Z" fill="#91aeb4" stroke="#91aeb4" stroke-width="1.51"/><path d="M95,213L243,336L264,275Z" fill="#bae3b6" stroke="#bae3b6" stroke-width="1.51"/><path d="M95,213L83,398L243,336Z" fill="#b7e1b6" stroke="#b7e1b6" stroke-width="1.51"/><path d="M157,-8L118,89L230,45Z" fill="#dbf1b3" stroke="#dbf1b3" stroke-width="1.51"/><path d="M8,274L83,398L95,213Z" fill="#c0e5b6" stroke="#c0e5b6" stroke-width="1.51"/><path d="M19,502L-15,698L155,715Z" fill="#a1cdbb" stroke="#a1cdbb" stroke-width="1.51"/><path d="M28,-172L-28,-41L157,-8Z" fill="#edf8b2" stroke="#edf8b2" stroke-width="1.51"/><path d="M19,502L155,715L177,509Z" fill="#a0d2bc" stroke="#a0d2bc" stroke-width="1.51"/><path d="M83,398L19,502L177,509Z" fill="#abdaba" stroke="#abdaba" stroke-width="1.51"/><path d="M35,831L-48,1012L178,982Z" fill="#98a9b0" stroke="#98a9b0" stroke-width="1.51"/><path d="M11,1116L102,1154L178,982Z" fill="#9597a9" stroke="#9597a9" stroke-width="1.51"/><path d="M-48,1012L11,1116L178,982Z" fill="#989dad" stroke="#989dad" stroke-width="1.51"/><path d="M115,802L35,831L178,982Z" fill="#97b1b4" stroke="#97b1b4" stroke-width="1.51"/><path d="M23,433L19,502L83,398Z" fill="#afdcba" stroke="#afdcba" stroke-width="1.51"/><path d="M102,1154L-26,1254L147,1304Z" fill="#8e8a99" stroke="#8e8a99" stroke-width="1.51"/><path d="M16,81L118,89L157,-8Z" fill="#dff2b2" stroke="#dff2b2" stroke-width="1.51"/><path d="M-28,-41L16,81L157,-8Z" fill="#e6f5b3" stroke="#e6f5b3" stroke-width="1.51"/><path d="M-15,698L115,802L155,715Z" fill="#9bc3ba" stroke="#9bc3ba" stroke-width="1.51"/><path d="M-15,698L35,831L115,802Z" fill="#9dbeb9" stroke="#9dbeb9" stroke-width="1.51"/><path d="M16,81L95,213L118,89Z" fill="#d9f0b3" stroke="#d9f0b3" stroke-width="1.51"/><path d="M-145,-249L28,-172L124,-267Z" fill="#f6fbc4" stroke="#f6fbc4" stroke-width="1.51"/><path d="M11,1116L-26,1254L102,1154Z" fill="#968fa5" stroke="#968fa5" stroke-width="1.51"/><path d="M8,274L23,433L83,398Z" fill="#b7e1b9" stroke="#b7e1b9" stroke-width="1.51"/><path d="M16,81L8,274L95,213Z" fill="#d1edb5" stroke="#d1edb5" stroke-width="1.51"/><path d="M-169,192L8,274L16,81Z" fill="#d5efbb" stroke="#d5efbb" stroke-width="1.51"/><path d="M-140,517L-15,698L19,502Z" fill="#a7d4c2" stroke="#a7d4c2" stroke-width="1.51"/><path d="M8,274L-201,402L23,433Z" fill="#b9e2bf" stroke="#b9e2bf" stroke-width="1.51"/><path d="M-132,986L-48,1012L35,831Z" fill="#9ba9b6" stroke="#9ba9b6" stroke-width="1.51"/><path d="M-144,810L-132,986L35,831Z" fill="#9db3bc" stroke="#9db3bc" stroke-width="1.51"/><path d="M-15,698L-144,810L35,831Z" fill="#9ec0bf" stroke="#9ec0bf" stroke-width="1.51"/><path d="M-171,81L-169,192L16,81Z" fill="#e0f3bd" stroke="#e0f3bd" stroke-width="1.51"/><path d="M-145,-249L-28,-41L28,-172Z" fill="#f4fbc0" stroke="#f4fbc0" stroke-width="1.51"/><path d="M-145,-249L-208,-109L-28,-41Z" fill="#f5fbc3" stroke="#f5fbc3" stroke-width="1.51"/><path d="M-140,517L-186,652L-15,698Z" fill="#a7d1c6" stroke="#a7d1c6" stroke-width="1.51"/><path d="M-153,1130L-26,1254L11,1116Z" fill="#9991ac" stroke="#9991ac" stroke-width="1.51"/><path d="M-140,517L19,502L23,433Z" fill="#aedbc0" stroke="#aedbc0" stroke-width="1.51"/><path d="M-201,402L-140,517L23,433Z" fill="#b3dec4" stroke="#b3dec4" stroke-width="1.51"/><path d="M-28,-41L-171,81L16,81Z" fill="#e6f5ba" stroke="#e6f5ba" stroke-width="1.51"/><path d="M-169,192L-201,402L8,274Z" fill="#c6e8c2" stroke="#c6e8c2" stroke-width="1.51"/><path d="M-48,1012L-153,1130L11,1116Z" fill="#9a99b1" stroke="#9a99b1" stroke-width="1.51"/><path d="M-153,1130L-194,1234L-26,1254Z" fill="#968eaa" stroke="#968eaa" stroke-width="1.51"/><path d="M-186,652L-144,810L-15,698Z" fill="#a2c8c6" stroke="#a2c8c6" stroke-width="1.51"/><path d="M-208,-109L-171,81L-28,-41Z" fill="#eef9be" stroke="#eef9be" stroke-width="1.51"/><path d="M-132,986L-153,1130L-48,1012Z" fill="#9b9fb6" stroke="#9b9fb6" stroke-width="1.51"/><path d="M-144,810L-194,1234L-132,986Z" fill="#9da3ba" stroke="#9da3ba" stroke-width="1.51"/><path d="M-194,1234L-153,1130L-132,986Z" fill="#9c97b5" stroke="#9c97b5" stroke-width="1.51"/><path d="M-186,652L-194,1234L-144,810Z" fill="#9eb1c1" stroke="#9eb1c1" stroke-width="1.51"/><path d="M-201,402L-186,652L-140,517Z" fill="#addbca" stroke="#addbca" stroke-width="1.51"/><path d="M-171,81L-208,-109L-169,192Z" fill="#e9f6c2" stroke="#e9f6c2" stroke-width="1.51"/><path d="M-208,-109L-201,402L-169,192Z" fill="#dcf1c4" stroke="#dcf1c4" stroke-width="1.51"/><path d="M-201,402L-194,1234L-186,652Z" fill="#a2c4ca" stroke="#a2c4ca" stroke-width="1.51"/></svg>